<?xml version="1.0" encoding="UTF-8" standalone="no"?>
<!DOCTYPE svg PUBLIC "-//W3C//DTD SVG 1.0//EN" "http://www.w3.org/TR/2001/PR-SVG-20010719/DTD/svg10.dtd">
<svg width="15cm" height="12cm" viewBox="625 72 295 226" xmlns="http://www.w3.org/2000/svg" xmlns:xlink="http://www.w3.org/1999/xlink">
  <g>
    <rect style="fill: #ffffff" x="797" y="72" width="103" height="18"/>
    <rect style="fill: none; fill-opacity:0; stroke-width: 2; stroke: #000000" x="797" y="72" width="103" height="18"/>
    <text font-size="11.2" style="fill: #000000;text-anchor:middle;font-family:sans-serif;font-style:normal;font-weight:700" x="848.5" y="86">Employee</text>
    <rect style="fill: #ffffff" x="797" y="90" width="103" height="52"/>
    <rect style="fill: none; fill-opacity:0; stroke-width: 2; stroke: #000000" x="797" y="90" width="103" height="52"/>
    <polygon style="fill: #000000" points="800,100 802,103 804,100 802,97 "/>
    <text font-size="12.8" style="fill: #000000;text-anchor:start;font-family:monospace;font-style:normal;font-weight:700" x="806" y="106">id</text>
    <line style="fill: none; fill-opacity:0; stroke-width: 1; stroke: #000000" x1="806" y1="107.6" x2="893" y2="107.6"/>
    <ellipse style="fill: #000000" cx="802" cy="116" rx="2" ry="2"/>
    <text font-size="12.8" style="fill: #000000;text-anchor:start;font-family:monospace;font-style:normal;font-weight:normal" x="806" y="122">sur_name</text>
    <ellipse style="fill: #000000" cx="802" cy="132" rx="2" ry="2"/>
    <text font-size="12.8" style="fill: #000000;text-anchor:start;font-family:monospace;font-style:normal;font-weight:normal" x="806" y="138">first_name</text>
  </g>
  <g>
    <rect style="fill: #ffffff" x="625" y="123" width="133.8" height="18"/>
    <rect style="fill: none; fill-opacity:0; stroke-width: 2; stroke: #000000" x="625" y="123" width="133.8" height="18"/>
    <text font-size="11.2" style="fill: #000000;text-anchor:middle;font-family:sans-serif;font-style:normal;font-weight:700" x="691.9" y="137">Receipt</text>
    <rect style="fill: #ffffff" x="625" y="141" width="133.8" height="116"/>
    <rect style="fill: none; fill-opacity:0; stroke-width: 2; stroke: #000000" x="625" y="141" width="133.8" height="116"/>
    <polygon style="fill: #000000" points="628,151 630,154 632,151 630,148 "/>
    <text font-size="12.8" style="fill: #000000;text-anchor:start;font-family:monospace;font-style:normal;font-weight:700" x="634" y="157">id</text>
    <line style="fill: none; fill-opacity:0; stroke-width: 1; stroke: #000000" x1="634" y1="158.6" x2="751.8" y2="158.6"/>
    <ellipse style="fill: #000000" cx="630" cy="167" rx="2" ry="2"/>
    <text font-size="12.8" style="fill: #000000;text-anchor:start;font-family:monospace;font-style:normal;font-weight:normal" x="634" y="173">employee_id</text>
    <ellipse style="fill: #000000" cx="630" cy="183" rx="2" ry="2"/>
    <text font-size="12.8" style="fill: #000000;text-anchor:start;font-family:monospace;font-style:normal;font-weight:normal" x="634" y="189">time_id</text>
    <ellipse style="fill: #000000" cx="630" cy="199" rx="2" ry="2"/>
    <text font-size="12.8" style="fill: #000000;text-anchor:start;font-family:monospace;font-style:normal;font-weight:normal" x="634" y="205">invoice_number</text>
    <ellipse style="fill: #000000" cx="630" cy="215" rx="2" ry="2"/>
    <text font-size="12.8" style="fill: #000000;text-anchor:start;font-family:monospace;font-style:normal;font-weight:normal" x="634" y="221">customer_name</text>
    <ellipse style="fill: #000000" cx="630" cy="231" rx="2" ry="2"/>
    <text font-size="12.8" style="fill: #000000;text-anchor:start;font-family:monospace;font-style:normal;font-weight:normal" x="634" y="237">value_of_goods</text>
    <ellipse style="fill: #000000" cx="630" cy="247" rx="2" ry="2"/>
    <text font-size="12.8" style="fill: #000000;text-anchor:start;font-family:monospace;font-style:normal;font-weight:normal" x="634" y="253">canceled</text>
  </g>
  <g>
    <rect style="fill: #ffffff" x="796" y="212" width="103" height="18"/>
    <rect style="fill: none; fill-opacity:0; stroke-width: 2; stroke: #000000" x="796" y="212" width="103" height="18"/>
    <text font-size="11.2" style="fill: #000000;text-anchor:middle;font-family:sans-serif;font-style:normal;font-weight:700" x="847.5" y="226">Time</text>
    <rect style="fill: #ffffff" x="796" y="230" width="103" height="68"/>
    <rect style="fill: none; fill-opacity:0; stroke-width: 2; stroke: #000000" x="796" y="230" width="103" height="68"/>
    <polygon style="fill: #000000" points="799,240 801,243 803,240 801,237 "/>
    <text font-size="12.8" style="fill: #000000;text-anchor:start;font-family:monospace;font-style:normal;font-weight:700" x="805" y="246">id</text>
    <line style="fill: none; fill-opacity:0; stroke-width: 1; stroke: #000000" x1="805" y1="247.6" x2="892" y2="247.6"/>
    <ellipse style="fill: #000000" cx="801" cy="256" rx="2" ry="2"/>
    <text font-size="12.8" style="fill: #000000;text-anchor:start;font-family:monospace;font-style:normal;font-weight:normal" x="805" y="262">time</text>
    <ellipse style="fill: #000000" cx="801" cy="272" rx="2" ry="2"/>
    <text font-size="12.8" style="fill: #000000;text-anchor:start;font-family:monospace;font-style:normal;font-weight:normal" x="805" y="278">max_orders</text>
    <ellipse style="fill: #000000" cx="801" cy="288" rx="2" ry="2"/>
    <text font-size="12.8" style="fill: #000000;text-anchor:start;font-family:monospace;font-style:normal;font-weight:normal" x="805" y="294">locked</text>
  </g>
  <g>
    <polyline style="fill: none; fill-opacity:0; stroke-width: 2; stroke: #00ff00" points="758.8,167 920,167 920,100 909.736,100 "/>
    <polygon style="fill: #00ff00" points="902.236,100 912.236,95 909.736,100 912.236,105 "/>
    <polygon style="fill: none; fill-opacity:0; stroke-width: 2; stroke: #00ff00" points="902.236,100 912.236,95 909.736,100 912.236,105 "/>
    <text font-size="16" style="fill: #000000;text-anchor:start;font-family:monospace;font-style:normal;font-weight:normal" x="764.8" y="161">m</text>
    <text font-size="16" style="fill: #000000;text-anchor:start;font-family:monospace;font-style:normal;font-weight:normal" x="906" y="94">1</text>
  </g>
  <g>
    <polyline style="fill: none; fill-opacity:0; stroke-width: 2; stroke: #000099" points="758.8,183 919,183 919,240 908.736,240 "/>
    <polygon style="fill: #000099" points="901.236,240 911.236,235 908.736,240 911.236,245 "/>
    <polygon style="fill: none; fill-opacity:0; stroke-width: 2; stroke: #000099" points="901.236,240 911.236,235 908.736,240 911.236,245 "/>
    <text font-size="16" style="fill: #000000;text-anchor:start;font-family:monospace;font-style:normal;font-weight:normal" x="764.8" y="177">m</text>
    <text font-size="16" style="fill: #000000;text-anchor:start;font-family:monospace;font-style:normal;font-weight:normal" x="905" y="234">1</text>
  </g>
</svg>
